{
  "accessors": [
    {
      "bufferView": 2,
      "componentType": 5126,
      "count": 392,
      "max": [
        0.024987053126096725,
        1.4498049020767212,
        0.02498667873442173
      ],
      "min": [
        -0.024986958131194115,
        -1.4498049020767212,
        -0.024987339973449707
      ],
      "type": "VEC3"
    },
    {
      "bufferView": 2,
      "byteOffset": 4704,
      "componentType": 5126,
      "count": 392,
      "max": [
        0.9951850771903992,
        1.0,
        0.9951848983764648
      ],
      "min": [
        -0.9951850771903992,
        -1.0,
        -0.9951848387718201
      ],
      "type": "VEC3"
    },
    {
      "bufferView": 1,
      "componentType": 5126,
      "count": 392,
      "max": [
        1.0,
        1.0
      ],
      "min": [
        0.0,
        0.01000000536441803
      ],
      "type": "VEC2"
    },
    {
      "bufferView": 0,
      "componentType": 5125,
      "count": 768,
      "type": "SCALAR"
    },
    {
      "bufferView": 2,
      "byteOffset": 9408,
      "componentType": 5126,
      "count": 192,
      "max": [
        0.024987053126096725,
        1.4498049020767212,
        0.02498667873442173
      ],
      "min": [
        -0.024986958131194115,
        -1.4498049020767212,
        -0.024987339973449707
      ],
      "type": "VEC3"
    },
    {
      "bufferView": 2,
      "byteOffset": 11712,
      "componentType": 5126,
      "count": 192,
      "max": [
        0.995184600353241,
        1.0,
        0.9951846599578857
      ],
      "min": [
        -0.9951850771903992,
        -1.0,
        -0.9951848983764648
      ],
      "type": "VEC3"
    },
    {
      "bufferView": 1,
      "byteOffset": 3136,
      "componentType": 5126,
      "count": 192,
      "max": [
        1.0,
        1.0
      ],
      "min": [
        0.0,
        0.01000000536441803
      ],
      "type": "VEC2"
    },
    {
      "bufferView": 0,
      "byteOffset": 3072,
      "componentType": 5125,
      "count": 372,
      "type": "SCALAR"
    },
    {
      "bufferView": 2,
      "byteOffset": 14016,
      "componentType": 5126,
      "count": 192,
      "max": [
        0.024987053126096725,
        1.4498049020767212,
        0.02498667873442173
      ],
      "min": [
        -0.024986958131194115,
        -1.4498049020767212,
        -0.024987339973449707
      ],
      "type": "VEC3"
    },
    {
      "bufferView": 2,
      "byteOffset": 16320,
      "componentType": 5126,
      "count": 192,
      "max": [
        0.995184600353241,
        1.0,
        0.9951846599578857
      ],
      "min": [
        -0.9951850771903992,
        -1.0,
        -0.9951848983764648
      ],
      "type": "VEC3"
    },
    {
      "bufferView": 1,
      "byteOffset": 4672,
      "componentType": 5126,
      "count": 192,
      "max": [
        1.0,
        1.0
      ],
      "min": [
        0.0,
        0.01000000536441803
      ],
      "type": "VEC2"
    },
    {
      "bufferView": 0,
      "byteOffset": 4560,
      "componentType": 5125,
      "count": 372,
      "type": "SCALAR"
    },
    {
      "bufferView": 2,
      "byteOffset": 18624,
      "componentType": 5126,
      "count": 192,
      "max": [
        0.024987053126096725,
        1.4498049020767212,
        0.02498667873442173
      ],
      "min": [
        -0.024986958131194115,
        -1.4498049020767212,
        -0.024987339973449707
      ],
      "type": "VEC3"
    },
    {
      "bufferView": 2,
      "byteOffset": 20928,
      "componentType": 5126,
      "count": 192,
      "max": [
        0.995184600353241,
        1.0,
        0.9951846599578857
      ],
      "min": [
        -0.9951850771903992,
        -1.0,
        -0.9951848983764648
      ],
      "type": "VEC3"
    },
    {
      "bufferView": 1,
      "byteOffset": 6208,
      "componentType": 5126,
      "count": 192,
      "max": [
        1.0,
        1.0
      ],
      "min": [
        0.0,
        0.01000000536441803
      ],
      "type": "VEC2"
    },
    {
      "bufferView": 0,
      "byteOffset": 6048,
      "componentType": 5125,
      "count": 372,
      "type": "SCALAR"
    },
    {
      "bufferView": 2,
      "byteOffset": 23232,
      "componentType": 5126,
      "count": 392,
      "max": [
        0.024987053126096725,
        1.4498049020767212,
        0.02498667873442173
      ],
      "min": [
        -0.024986958131194115,
        -1.4498049020767212,
        -0.024987339973449707
      ],
      "type": "VEC3"
    },
    {
      "bufferView": 2,
      "byteOffset": 27936,
      "componentType": 5126,
      "count": 392,
      "max": [
        0.9951850771903992,
        1.0,
        0.9951848983764648
      ],
      "min": [
        -0.9951850771903992,
        -1.0,
        -0.9951848387718201
      ],
      "type": "VEC3"
    },
    {
      "bufferView": 1,
      "byteOffset": 7744,
      "componentType": 5126,
      "count": 392,
      "max": [
        1.0,
        1.0
      ],
      "min": [
        0.0,
        0.01000000536441803
      ],
      "type": "VEC2"
    },
    {
      "bufferView": 0,
      "byteOffset": 7536,
      "componentType": 5125,
      "count": 768,
      "type": "SCALAR"
    },
    {
      "bufferView": 2,
      "byteOffset": 32640,
      "componentType": 5126,
      "count": 192,
      "max": [
        0.024987053126096725,
        1.4498049020767212,
        0.02498667873442173
      ],
      "min": [
        -0.024986958131194115,
        -1.4498049020767212,
        -0.024987339973449707
      ],
      "type": "VEC3"
    },
    {
      "bufferView": 2,
      "byteOffset": 34944,
      "componentType": 5126,
      "count": 192,
      "max": [
        0.995184600353241,
        1.0,
        0.9951846599578857
      ],
      "min": [
        -0.9951850771903992,
        -1.0,
        -0.9951848983764648
      ],
      "type": "VEC3"
    },
    {
      "bufferView": 1,
      "byteOffset": 10880,
      "componentType": 5126,
      "count": 192,
      "max": [
        1.0,
        1.0
      ],
      "min": [
        0.0,
        0.01000000536441803
      ],
      "type": "VEC2"
    },
    {
      "bufferView": 0,
      "byteOffset": 10608,
      "componentType": 5125,
      "count": 372,
      "type": "SCALAR"
    },
    {
      "bufferView": 2,
      "byteOffset": 37248,
      "componentType": 5126,
      "count": 192,
      "max": [
        0.024987053126096725,
        1.4498049020767212,
        0.02498667873442173
      ],
      "min": [
        -0.024986958131194115,
        -1.4498049020767212,
        -0.024987339973449707
      ],
      "type": "VEC3"
    },
    {
      "bufferView": 2,
      "byteOffset": 39552,
      "componentType": 5126,
      "count": 192,
      "max": [
        0.995184600353241,
        1.0,
        0.9951846599578857
      ],
      "min": [
        -0.9951850771903992,
        -1.0,
        -0.9951848983764648
      ],
      "type": "VEC3"
    },
    {
      "bufferView": 1,
      "byteOffset": 12416,
      "componentType": 5126,
      "count": 192,
      "max": [
        1.0,
        1.0
      ],
      "min": [
        0.0,
        0.01000000536441803
      ],
      "type": "VEC2"
    },
    {
      "bufferView": 0,
      "byteOffset": 12096,
      "componentType": 5125,
      "count": 372,
      "type": "SCALAR"
    },
    {
      "bufferView": 2,
      "byteOffset": 41856,
      "componentType": 5126,
      "count": 192,
      "max": [
        0.024987053126096725,
        1.4498049020767212,
        0.02498667873442173
      ],
      "min": [
        -0.024986958131194115,
        -1.4498049020767212,
        -0.024987339973449707
      ],
      "type": "VEC3"
    },
    {
      "bufferView": 2,
      "byteOffset": 44160,
      "componentType": 5126,
      "count": 192,
      "max": [
        0.995184600353241,
        1.0,
        0.9951846599578857
      ],
      "min": [
        -0.9951850771903992,
        -1.0,
        -0.9951848983764648
      ],
      "type": "VEC3"
    },
    {
      "bufferView": 1,
      "byteOffset": 13952,
      "componentType": 5126,
      "count": 192,
      "max": [
        1.0,
        1.0
      ],
      "min": [
        0.0,
        0.01000000536441803
      ],
      "type": "VEC2"
    },
    {
      "bufferView": 0,
      "byteOffset": 13584,
      "componentType": 5125,
      "count": 372,
      "type": "SCALAR"
    },
    {
      "bufferView": 3,
      "componentType": 5126,
      "count": 120,
      "max": [
        5.0
      ],
      "min": [
        0.0416666679084301
      ],
      "type": "SCALAR"
    },
    {
      "bufferView": 4,
      "componentType": 5126,
      "count": 120,
      "max": [
        0.6531838774681091,
        1.6189560890197754,
        -0.0
      ],
      "min": [
        -0.6472827792167664,
        0.31848934292793274,
        -0.0
      ],
      "type": "VEC3"
    },
    {
      "bufferView": 3,
      "byteOffset": 480,
      "componentType": 5126,
      "count": 120,
      "max": [
        5.0
      ],
      "min": [
        0.0416666679084301
      ],
      "type": "SCALAR"
    },
    {
      "bufferView": 4,
      "byteOffset": 1440,
      "componentType": 5126,
      "count": 120,
      "max": [
        1.0890047550201416,
        0.45187607407569885,
        1.0890047550201416
      ],
      "min": [
        1.0890047550201416,
        0.015824465081095695,
        1.0890047550201416
      ],
      "type": "VEC3"
    },
    {
      "bufferView": 3,
      "byteOffset": 960,
      "componentType": 5126,
      "count": 120,
      "max": [
        5.0
      ],
      "min": [
        0.0416666679084301
      ],
      "type": "SCALAR"
    },
    {
      "bufferView": 4,
      "byteOffset": 2880,
      "componentType": 5126,
      "count": 120,
      "max": [
        0.6638230085372925,
        1.6266611814498901,
        -0.0
      ],
      "min": [
        -0.6406241655349731,
        0.32221391797065735,
        -0.0
      ],
      "type": "VEC3"
    },
    {
      "bufferView": 3,
      "byteOffset": 1440,
      "componentType": 5126,
      "count": 120,
      "max": [
        5.0
      ],
      "min": [
        0.0416666679084301
      ],
      "type": "SCALAR"
    },
    {
      "bufferView": 4,
      "byteOffset": 4320,
      "componentType": 5126,
      "count": 120,
      "max": [
        1.0890049934387207,
        0.44303393363952637,
        1.0890047550201416
      ],
      "min": [
        1.0890047550201416,
        0.00998934730887413,
        1.0890047550201416
      ],
      "type": "VEC3"
    }
  ],
  "animations": [
    {
      "channels": [
        {
          "sampler": 0,
          "target": {
            "node": 3,
            "path": "translation"
          }
        },
        {
          "sampler": 1,
          "target": {
            "node": 3,
            "path": "scale"
          }
        },
        {
          "sampler": 2,
          "target": {
            "node": 11,
            "path": "translation"
          }
        },
        {
          "sampler": 3,
          "target": {
            "node": 11,
            "path": "scale"
          }
        }
      ],
      "name": "Animation",
      "samplers": [
        {
          "input": 32,
          "interpolation": "LINEAR",
          "output": 33
        },
        {
          "input": 34,
          "interpolation": "LINEAR",
          "output": 35
        },
        {
          "input": 36,
          "interpolation": "LINEAR",
          "output": 37
        },
        {
          "input": 38,
          "interpolation": "LINEAR",
          "output": 39
        }
      ]
    }
  ],
  "asset": {
    "extras": {
      "author": "Akabuki (https://sketchfab.com/Akabuki)",
      "license": "CC-BY-4.0 (http://creativecommons.org/licenses/by/4.0/)",
      "source": "https://sketchfab.com/3d-models/neonxstickani-7ca136a4ca8f44b689180be9902caeab",
      "title": "NeonXStickAni"
    },
    "generator": "Sketchfab-11.53.2",
    "version": "2.0"
  },
  "bufferViews": [
    {
      "buffer": 0,
      "byteLength": 15072,
      "name": "floatBufferViews",
      "target": 34963
    },
    {
      "buffer": 0,
      "byteLength": 15488,
      "byteOffset": 15072,
      "byteStride": 8,
      "name": "floatBufferViews",
      "target": 34962
    },
    {
      "buffer": 0,
      "byteLength": 46464,
      "byteOffset": 30560,
      "byteStride": 12,
      "name": "floatBufferViews",
      "target": 34962
    },
    {
      "buffer": 0,
      "byteLength": 1920,
      "byteOffset": 77024,
      "name": "floatBufferViews"
    },
    {
      "buffer": 0,
      "byteLength": 5760,
      "byteOffset": 78944,
      "byteStride": 12,
      "name": "floatBufferViews"
    }
  ],
  "buffers": [
    {
      "byteLength": 84704,
      "uri": "scene.bin"
    }
  ],
  "materials": [
    {
      "doubleSided": true,
      "name": "BlackMaterial.003",
      "pbrMetallicRoughness": {
        "baseColorFactor": [
          0.0,
          0.0,
          0.0,
          1.0
        ],
        "metallicFactor": 0.0,
        "roughnessFactor": 0.5
      }
    },
    {
      "doubleSided": true,
      "name": "Material.027",
      "pbrMetallicRoughness": {
        "baseColorFactor": [
          0.00637063,
          0.00637063,
          0.00637063,
          1.0
        ],
        "metallicFactor": 0.0,
        "roughnessFactor": 0.5
      }
    },
    {
      "doubleSided": true,
      "name": "Material.026",
      "pbrMetallicRoughness": {
        "baseColorFactor": [
          0.00637063,
          0.00637063,
          0.00637063,
          1.0
        ],
        "metallicFactor": 0.0,
        "roughnessFactor": 0.5
      }
    },
    {
      "doubleSided": true,
      "emissiveFactor": [
        1.0,
        1.0,
        1.0
      ],
      "name": "BrightMaterial.002"
    },
    {
      "doubleSided": true,
      "name": "BlackMaterial.004",
      "pbrMetallicRoughness": {
        "baseColorFactor": [
          0.0,
          0.0,
          0.0,
          1.0
        ],
        "metallicFactor": 0.0,
        "roughnessFactor": 0.5
      }
    },
    {
      "doubleSided": true,
      "name": "Material.029",
      "pbrMetallicRoughness": {
        "baseColorFactor": [
          0.00637063,
          0.00637063,
          0.00637063,
          1.0
        ],
        "metallicFactor": 0.0,
        "roughnessFactor": 0.5
      }
    },
    {
      "doubleSided": true,
      "name": "Material.028",
      "pbrMetallicRoughness": {
        "baseColorFactor": [
          0.00637063,
          0.00637063,
          0.00637063,
          1.0
        ],
        "metallicFactor": 0.0,
        "roughnessFactor": 0.5
      }
    },
    {
      "doubleSided": true,
      "emissiveFactor": [
        1.0,
        1.0,
        1.0
      ],
      "name": "BrightMaterial.003"
    }
  ],
  "meshes": [
    {
      "name": "Object_0",
      "primitives": [
        {
          "attributes": {
            "NORMAL": 1,
            "POSITION": 0,
            "TEXCOORD_0": 2
          },
          "indices": 3,
          "material": 0,
          "mode": 4
        }
      ]
    },
    {
      "name": "Object_1",
      "primitives": [
        {
          "attributes": {
            "NORMAL": 5,
            "POSITION": 4,
            "TEXCOORD_0": 6
          },
          "indices": 7,
          "material": 1,
          "mode": 4
        }
      ]
    },
    {
      "name": "Object_2",
      "primitives": [
        {
          "attributes": {
            "NORMAL": 9,
            "POSITION": 8,
            "TEXCOORD_0": 10
          },
          "indices": 11,
          "material": 2,
          "mode": 4
        }
      ]
    },
    {
      "name": "Object_3",
      "primitives": [
        {
          "attributes": {
            "NORMAL": 13,
            "POSITION": 12,
            "TEXCOORD_0": 14
          },
          "indices": 15,
          "material": 3,
          "mode": 4
        }
      ]
    },
    {
      "name": "Object_4",
      "primitives": [
        {
          "attributes": {
            "NORMAL": 17,
            "POSITION": 16,
            "TEXCOORD_0": 18
          },
          "indices": 19,
          "material": 4,
          "mode": 4
        }
      ]
    },
    {
      "name": "Object_5",
      "primitives": [
        {
          "attributes": {
            "NORMAL": 21,
            "POSITION": 20,
            "TEXCOORD_0": 22
          },
          "indices": 23,
          "material": 5,
          "mode": 4
        }
      ]
    },
    {
      "name": "Object_6",
      "primitives": [
        {
          "attributes": {
            "NORMAL": 25,
            "POSITION": 24,
            "TEXCOORD_0": 26
          },
          "indices": 27,
          "material": 6,
          "mode": 4
        }
      ]
    },
    {
      "name": "Object_7",
      "primitives": [
        {
          "attributes": {
            "NORMAL": 29,
            "POSITION": 28,
            "TEXCOORD_0": 30
          },
          "indices": 31,
          "material": 7,
          "mode": 4
        }
      ]
    }
  ],
  "nodes": [
    {
      "children": [
        1
      ],
      "matrix": [
        1.0,
        0.0,
        0.0,
        0.0,
        0.0,
        2.220446049250313e-16,
        -1.0,
        0.0,
        0.0,
        1.0,
        2.220446049250313e-16,
        0.0,
        0.0,
        0.0,
        0.0,
        1.0
      ],
      "name": "Sketchfab_model"
    },
    {
      "children": [
        2
      ],
      "name": "root"
    },
    {
      "children": [
        3,
        5,
        7,
        9,
        11,
        13,
        15,
        17
      ],
      "matrix": [
        1.0,
        0.0,
        0.0,
        0.0,
        0.0,
        2.220446049250313e-16,
        1.0,
        0.0,
        0.0,
        -1.0,
        2.220446049250313e-16,
        0.0,
        0.0,
        0.0,
        0.0,
        1.0
      ],
      "name": "GLTF_SceneRootNode"
    },
    {
      "children": [
        4
      ],
      "name": "Ani.002_0",
      "rotation": [
        0.0,
        0.0,
        0.3826834559440613,
        0.9238795042037964
      ],
      "scale": [
        1.0890047550201416,
        0.015824465081095695,
        1.0890047550201416
      ],
      "translation": [
        0.6531838774681091,
        0.31848934292793274,
        0.0
      ]
    },
    {
      "mesh": 0,
      "name": "Object_4"
    },
    {
      "children": [
        6
      ],
      "matrix": [
        0.8525302975133399,
        0.8525302370637315,
        0.0,
        0.0,
        -0.01489425187670478,
        0.014894252932798339,
        0.0,
        0.0,
        0.0,
        0.0,
        1.2056598663330078,
        0.0,
        -0.6474457383155823,
        1.6192671060562134,
        0.0,
        1.0
      ],
      "name": "Deckel.003_1"
    },
    {
      "mesh": 1,
      "name": "Object_6"
    },
    {
      "children": [
        8
      ],
      "matrix": [
        0.8525302975133399,
        0.8525302370637315,
        0.0,
        0.0,
        -0.01489425187670478,
        0.014894252932798339,
        0.0,
        0.0,
        0.0,
        0.0,
        1.2056598663330078,
        0.0,
        0.6548791527748108,
        0.31694209575653076,
        0.0,
        1.0
      ],
      "name": "Deckel.002_2"
    },
    {
      "mesh": 2,
      "name": "Object_8"
    },
    {
      "children": [
        10
      ],
      "matrix": [
        0.707106806255644,
        0.70710675611745,
        0.0,
        0.0,
        -0.4341407205122457,
        0.43414075129547824,
        0.0,
        0.0,
        0.0,
        0.0,
        1.0,
        0.0,
        0.003743961453437805,
        0.9680773019790649,
        0.0,
        1.0
      ],
      "name": "Neon.002_3"
    },
    {
      "mesh": 3,
      "name": "Object_10"
    },
    {
      "children": [
        12
      ],
      "name": "Ani.003_4",
      "rotation": [
        0.0,
        0.0,
        -0.3826834559440613,
        0.9238795042037964
      ],
      "scale": [
        1.0890047550201416,
        0.00998934730887413,
        1.0890047550201416
      ],
      "translation": [
        -0.6406241655349731,
        0.32221391797065735,
        0.0
      ]
    },
    {
      "mesh": 4,
      "name": "Object_12"
    },
    {
      "children": [
        14
      ],
      "matrix": [
        0.8525302975133399,
        -0.8525302370637315,
        -0.0,
        0.0,
        0.01489425187670478,
        0.014894252932798339,
        0.0,
        0.0,
        0.0,
        0.0,
        1.2056598663330078,
        0.0,
        0.6565399169921875,
        1.619230031967163,
        0.0,
        1.0
      ],
      "name": "Deckel.005_5"
    },
    {
      "mesh": 5,
      "name": "Object_14"
    },
    {
      "children": [
        16
      ],
      "matrix": [
        0.8525302975133399,
        -0.8525302370637315,
        -0.0,
        0.0,
        0.01489425187670478,
        0.014894252932798339,
        0.0,
        0.0,
        0.0,
        0.0,
        1.2056598663330078,
        0.0,
        -0.6457849740982056,
        0.31690502166748047,
        0.0,
        1.0
      ],
      "name": "Deckel.004_6"
    },
    {
      "mesh": 6,
      "name": "Object_16"
    },
    {
      "children": [
        18
      ],
      "matrix": [
        0.707106806255644,
        -0.70710675611745,
        -0.0,
        0.0,
        0.4341407205122457,
        0.43414075129547824,
        0.0,
        0.0,
        0.0,
        0.0,
        1.0,
        0.0,
        0.0053501129150390625,
        0.9680402278900146,
        0.0,
        1.0
      ],
      "name": "Neon.003_7"
    },
    {
      "mesh": 7,
      "name": "Object_18"
    }
  ],
  "scene": 0,
  "scenes": [
    {
      "name": "Sketchfab_Scene",
      "nodes": [
        0
      ]
    }
  ]
}
